<svg width="84" height="84" viewBox="0 0 84 84" fill="none" xmlns="http://www.w3.org/2000/svg">
    <g clip-path="url(#a7v79krx9a)" fill="#2B2B2B">
        <path d="M42 0a42 42 0 1 0 42 42A42.043 42.043 0 0 0 42 0zm33.3 42A33.3 33.3 0 1 1 42 8.7 33.35 33.35 0 0 1 75.307 42H75.3z"/>
        <path d="M59.096 44.48 46.761 18.655H31.882c.985 1.7 1.913 3.287 2.877 4.96-3.33 6.964-6.646 13.893-9.92 20.85-1.26 2.627-2.519 5.26-3.775 7.9L18.42 57.9H28.51l13.461-28.255 13.462 28.255h10.06l-2.628-5.52-3.769-7.9z"/>
    </g>
    <defs>
        <clipPath id="a7v79krx9a">
            <path fill="#fff" d="M0 0h84v84H0z"/>
        </clipPath>
    </defs>
</svg>
